<?xml version="1.0" encoding="UTF-8"?>
<!DOCTYPE svg PUBLIC "-//W3C//DTD SVG 1.1//EN" "http://www.w3.org/Graphics/SVG/1.1/DTD/svg11.dtd">
<svg xmlns="http://www.w3.org/2000/svg" version="1.1" width="512px" height="512px" style="shape-rendering:geometricPrecision; text-rendering:geometricPrecision; image-rendering:optimizeQuality; fill-rule:evenodd; clip-rule:evenodd" xmlns:xlink="http://www.w3.org/1999/xlink">
<g><path style="opacity:0.983" fill="#030303" d="M 511.5,253.5 C 511.5,264.833 511.5,276.167 511.5,287.5C 509.904,291.976 506.904,295.31 502.5,297.5C 505.368,366.606 478.034,419.773 420.5,457C 397.898,470.067 373.565,477.401 347.5,479C 322.167,479.667 296.833,479.667 271.5,479C 246.578,477.438 223.244,470.605 201.5,458.5C 201.65,469.174 196.65,476.007 186.5,479C 128.833,479.667 71.1667,479.667 13.5,479C 7.03082,477.277 2.36415,473.444 -0.5,467.5C -0.5,375.5 -0.5,283.5 -0.5,191.5C 1.72451,185.45 6.05784,181.617 12.5,180C 62.5,179.667 112.5,179.333 162.5,179C 157.855,141.602 173.521,117.602 209.5,107C 218.718,104.358 228.052,102.691 237.5,102C 239.041,103.371 240.375,104.871 241.5,106.5C 241.953,110.426 240.62,113.592 237.5,116C 226.381,118.53 215.381,121.53 204.5,125C 190.643,130.854 181.809,141.02 178,155.5C 177.5,163.827 177.334,172.16 177.5,180.5C 188.574,178.783 196.074,183.117 200,193.5C 200.195,198.418 200.695,203.251 201.5,208C 212.301,210.833 223.301,212.166 234.5,212C 239.291,213.412 241.124,216.579 240,221.5C 239.167,223.667 237.667,225.167 235.5,226C 223.72,226.722 212.053,225.888 200.5,223.5C 200.5,229.833 200.5,236.167 200.5,242.5C 264.834,242.333 329.168,242.5 393.5,243C 395.644,243.792 396.977,245.292 397.5,247.5C 398.542,252.133 396.875,255.299 392.5,257C 328.501,257.5 264.501,257.667 200.5,257.5C 200.5,266.167 200.5,274.833 200.5,283.5C 298.666,284.666 396.999,284.832 495.5,284C 496.649,275.579 496.816,267.079 496,258.5C 489.59,257.522 483.09,257.189 476.5,257.5C 459.163,257.667 441.83,257.5 424.5,257C 420.911,255.326 419.245,252.493 419.5,248.5C 419.833,244.833 421.833,242.833 425.5,242.5C 443.5,242.5 461.5,242.5 479.5,242.5C 479.768,240.901 479.434,239.568 478.5,238.5C 475.565,219.232 465.565,204.899 448.5,195.5C 444.833,202.824 440.166,209.49 434.5,215.5C 426.604,221.617 417.937,226.45 408.5,230C 400.378,230.302 397.711,226.469 400.5,218.5C 406.495,215.169 412.495,211.835 418.5,208.5C 432.837,199.141 437.67,186.141 433,169.5C 429.23,155.788 421.063,145.621 408.5,139C 401.541,135.235 394.208,132.901 386.5,132C 381.957,138.611 376.623,144.445 370.5,149.5C 348.868,164.995 324.702,174.329 298,177.5C 290.947,176.994 288.614,173.328 291,166.5C 291.833,165.667 292.667,164.833 293.5,164C 313.471,160.59 332.471,154.257 350.5,145C 355.647,141.68 360.314,137.847 364.5,133.5C 381.397,117.822 385.564,99.1558 377,77.5C 372.015,66.358 365.182,56.5246 356.5,48C 355.167,47.3333 353.833,47.3333 352.5,48C 347.704,54.6291 342.371,60.7957 336.5,66.5C 316.221,83.7305 293.387,96.7305 268,105.5C 264.52,105.169 262.02,103.502 260.5,100.5C 260.154,97.3979 260.821,94.5645 262.5,92C 283.88,83.816 303.547,72.816 321.5,59C 329.57,51.5997 336.904,43.5997 343.5,35C 354.768,29.0836 364.268,31.2503 372,41.5C 384.482,54.7957 392.482,70.4624 396,88.5C 396.812,98.2455 396.312,107.912 394.5,117.5C 427.169,125 445.669,145.334 450,178.5C 476.732,191.07 491.566,212.07 494.5,241.5C 502.391,242.396 508.057,246.396 511.5,253.5 Z"/></g>
<g><path style="opacity:1" fill="#fae3c6" d="M 364.5,133.5 C 366.777,120.7 365.277,108.366 360,96.5C 354.522,85.707 347.689,75.8737 339.5,67C 338.552,66.5172 337.552,66.3505 336.5,66.5C 342.371,60.7957 347.704,54.6291 352.5,48C 353.833,47.3333 355.167,47.3333 356.5,48C 365.182,56.5246 372.015,66.358 377,77.5C 385.564,99.1558 381.397,117.822 364.5,133.5 Z"/></g>
<g><path style="opacity:1" fill="#fdefe0" d="M 336.5,66.5 C 337.552,66.3505 338.552,66.5172 339.5,67C 347.689,75.8737 354.522,85.707 360,96.5C 365.277,108.366 366.777,120.7 364.5,133.5C 360.314,137.847 355.647,141.68 350.5,145C 332.471,154.257 313.471,160.59 293.5,164C 292.667,164.833 291.833,165.667 291,166.5C 288.614,173.328 290.947,176.994 298,177.5C 324.702,174.329 348.868,164.995 370.5,149.5C 401.895,156.617 417.895,176.283 418.5,208.5C 412.495,211.835 406.495,215.169 400.5,218.5C 397.711,226.469 400.378,230.302 408.5,230C 417.937,226.45 426.604,221.617 434.5,215.5C 444.397,222.058 451.73,230.725 456.5,241.5C 445.986,241.172 435.653,241.506 425.5,242.5C 421.833,242.833 419.833,244.833 419.5,248.5C 411.971,250.142 404.638,249.808 397.5,247.5C 396.977,245.292 395.644,243.792 393.5,243C 329.168,242.5 264.834,242.333 200.5,242.5C 200.5,236.167 200.5,229.833 200.5,223.5C 212.053,225.888 223.72,226.722 235.5,226C 237.667,225.167 239.167,223.667 240,221.5C 241.124,216.579 239.291,213.412 234.5,212C 223.301,212.166 212.301,210.833 201.5,208C 200.695,203.251 200.195,198.418 200,193.5C 196.074,183.117 188.574,178.783 177.5,180.5C 177.334,172.16 177.5,163.827 178,155.5C 181.809,141.02 190.643,130.854 204.5,125C 215.381,121.53 226.381,118.53 237.5,116C 240.62,113.592 241.953,110.426 241.5,106.5C 247.892,104.653 254.225,102.653 260.5,100.5C 262.02,103.502 264.52,105.169 268,105.5C 293.387,96.7305 316.221,83.7305 336.5,66.5 Z"/></g>
<g><path style="opacity:1" fill="#090808" d="M 246.5,129.5 C 256.11,129.936 258.776,134.436 254.5,143C 245.319,146.325 241.485,143.158 243,133.5C 244.102,132.051 245.269,130.718 246.5,129.5 Z"/></g>
<g><path style="opacity:1" fill="#fbe4c6" d="M 418.5,208.5 C 417.895,176.283 401.895,156.617 370.5,149.5C 376.623,144.445 381.957,138.611 386.5,132C 394.208,132.901 401.541,135.235 408.5,139C 421.063,145.621 429.23,155.788 433,169.5C 437.67,186.141 432.837,199.141 418.5,208.5 Z"/></g>
<g><path style="opacity:1" fill="#090908" d="M 233.5,157.5 C 242.33,156.162 245.83,159.829 244,168.5C 239.667,173.833 235.333,173.833 231,168.5C 229.812,164.259 230.645,160.592 233.5,157.5 Z"/></g>
<g><path style="opacity:1" fill="#0a0909" d="M 394.5,169.5 C 404.11,169.936 406.776,174.436 402.5,183C 393.242,186.295 389.409,183.128 391,173.5C 392.102,172.051 393.269,170.718 394.5,169.5 Z"/></g>
<g><path style="opacity:1" fill="#060606" d="M 372.5,187.5 C 379.568,187.261 382.734,190.595 382,197.5C 381.215,199.286 380.049,200.786 378.5,202C 357.32,212.713 334.987,219.879 311.5,223.5C 305.357,222.189 303.191,218.523 305,212.5C 306.109,210.185 307.943,208.685 310.5,208C 328.837,205.333 346.503,200.333 363.5,193C 366.898,191.643 369.898,189.81 372.5,187.5 Z"/></g>
<g><path style="opacity:1" fill="#878078" d="M 15.5,195.5 C 44.9953,194.502 74.662,194.169 104.5,194.5C 104.737,195.791 104.404,196.791 103.5,197.5C 74.519,195.508 45.1857,194.841 15.5,195.5 Z"/></g>
<g><path style="opacity:1" fill="#fdefe0" d="M 15.5,195.5 C 45.1857,194.841 74.519,195.508 103.5,197.5C 86.6493,236.325 56.9826,256.659 14.5,258.5C 14.1694,237.327 14.5027,216.327 15.5,195.5 Z"/></g>
<g><path style="opacity:1" fill="#5490d4" d="M 120.5,195.5 C 134.833,195.5 149.167,195.5 163.5,195.5C 163.5,201.167 163.5,206.833 163.5,212.5C 143.298,220.903 135.798,235.903 141,257.5C 145.029,268.362 152.529,275.696 163.5,279.5C 163.5,298.833 163.5,318.167 163.5,337.5C 159.139,334.653 154.472,332.319 149.5,330.5C 150.284,311.238 142.95,296.071 127.5,285C 124.5,284.333 121.5,284.333 118.5,285C 112.523,290.645 106.857,296.645 101.5,303C 86.3614,314.389 69.3614,321.722 50.5,325C 32.7912,332.564 24.9579,346.064 27,365.5C 22.9167,367.457 19.0834,369.79 15.5,372.5C 14.5001,339.507 14.1668,306.507 14.5,273.5C 67.1082,270.872 102.442,244.872 120.5,195.5 Z"/></g>
<g><path style="opacity:1" fill="#1b6dbb" d="M 120.5,195.5 C 141.329,194.337 162.329,194.171 183.5,195C 184,195.5 184.5,196 185,196.5C 185.499,202.157 185.666,207.824 185.5,213.5C 178.243,211.395 170.91,211.062 163.5,212.5C 163.5,206.833 163.5,201.167 163.5,195.5C 149.167,195.5 134.833,195.5 120.5,195.5 Z"/></g>
<g><path style="opacity:1" fill="#fbe5c7" d="M 478.5,238.5 C 478.5,239.5 478.5,240.5 478.5,241.5C 471.167,241.5 463.833,241.5 456.5,241.5C 451.73,230.725 444.397,222.058 434.5,215.5C 440.166,209.49 444.833,202.824 448.5,195.5C 465.565,204.899 475.565,219.232 478.5,238.5 Z"/></g>
<g><path style="opacity:1" fill="#050505" d="M 33.5,211.5 C 39.5092,211.334 45.5092,211.501 51.5,212C 58.1667,216.667 58.1667,221.333 51.5,226C 45.5,226.667 39.5,226.667 33.5,226C 26.9022,221.129 26.9022,216.295 33.5,211.5 Z"/></g>
<g><path style="opacity:1" fill="#0d0c0b" d="M 274.5,211.5 C 280.629,210.555 284.296,213.055 285.5,219C 284.296,225.106 280.629,227.439 274.5,226C 269.214,221.169 269.214,216.335 274.5,211.5 Z"/></g>
<g><path style="opacity:1" fill="#f61464" d="M 163.5,262.5 C 163.5,251.5 163.5,240.5 163.5,229.5C 170.447,225.464 177.447,225.631 184.5,230C 185.652,240.423 185.819,250.923 185,261.5C 179.729,265.117 173.895,266.284 167.5,265C 165.934,264.392 164.6,263.558 163.5,262.5 Z"/></g>
<g><path style="opacity:1" fill="#f2387d" d="M 163.5,229.5 C 163.5,240.5 163.5,251.5 163.5,262.5C 157.385,258.622 154.052,252.955 153.5,245.5C 154.339,238.464 157.673,233.131 163.5,229.5 Z"/></g>
<g><path style="opacity:1" fill="#b6aa9c" d="M 478.5,238.5 C 479.434,239.568 479.768,240.901 479.5,242.5C 461.5,242.5 443.5,242.5 425.5,242.5C 435.653,241.506 445.986,241.172 456.5,241.5C 463.833,241.5 471.167,241.5 478.5,241.5C 478.5,240.5 478.5,239.5 478.5,238.5 Z"/></g>
<g><path style="opacity:1" fill="#d2e0f3" d="M 397.5,247.5 C 404.638,249.808 411.971,250.142 419.5,248.5C 419.245,252.493 420.911,255.326 424.5,257C 441.83,257.5 459.163,257.667 476.5,257.5C 476.5,266.167 476.5,274.833 476.5,283.5C 384.5,283.5 292.5,283.5 200.5,283.5C 200.5,274.833 200.5,266.167 200.5,257.5C 264.501,257.667 328.501,257.5 392.5,257C 396.875,255.299 398.542,252.133 397.5,247.5 Z"/></g>
<g><path style="opacity:1" fill="#a4b7d1" d="M 476.5,257.5 C 483.09,257.189 489.59,257.522 496,258.5C 496.816,267.079 496.649,275.579 495.5,284C 396.999,284.832 298.666,284.666 200.5,283.5C 292.5,283.5 384.5,283.5 476.5,283.5C 476.5,274.833 476.5,266.167 476.5,257.5 Z"/></g>
<g><path style="opacity:1" fill="#1574c9" d="M 163.5,279.5 C 170.146,280.741 176.813,280.741 183.5,279.5C 184.167,291.833 184.833,304.167 185.5,316.5C 186.599,319.932 188.933,321.932 192.5,322.5C 192.5,329.5 192.5,336.5 192.5,343.5C 189.737,343.744 187.571,345.077 186,347.5C 185.831,354.191 185.331,360.858 184.5,367.5C 182.258,365.461 179.758,363.795 177,362.5C 175.098,352.691 170.598,344.358 163.5,337.5C 163.5,318.167 163.5,298.833 163.5,279.5 Z"/></g>
<g><path style="opacity:1" fill="#0e5390" d="M 183.5,279.5 C 183.56,278.957 183.893,278.624 184.5,278.5C 185.499,291.149 185.832,303.816 185.5,316.5C 184.833,304.167 184.167,291.833 183.5,279.5 Z"/></g>
<g><path style="opacity:1" fill="#83ade0" d="M 357.5,462.5 C 422.291,434.658 456.624,385.325 460.5,314.5C 373.833,314.5 287.167,314.5 200.5,314.5C 200.5,309.5 200.5,304.5 200.5,299.5C 295.833,299.5 391.167,299.5 486.5,299.5C 488.841,372.705 456.841,424.205 390.5,454C 379.768,457.968 368.768,460.801 357.5,462.5 Z"/></g>
<g><path style="opacity:1" fill="#fdefe0" d="M 184.5,395.5 C 184.5,400.5 184.5,405.5 184.5,410.5C 127.833,410.5 71.1667,410.5 14.5,410.5C 12.8331,394.627 19.4998,384.46 34.5,380C 39.6791,384.84 45.8457,387.34 53,387.5C 58.9364,386.891 64.7697,385.725 70.5,384C 75.1433,381.928 76.6433,378.428 75,373.5C 74.5,371.667 73.3333,370.5 71.5,370C 65.5763,369.968 59.743,370.802 54,372.5C 49.5921,372.463 45.9254,370.796 43,367.5C 39.2772,354.283 43.4439,344.783 55.5,339C 82.7768,334.535 105.443,322.035 123.5,301.5C 134.979,312.213 136.479,324.213 128,337.5C 118.707,347.134 108.04,354.801 96,360.5C 94.1667,369.333 97.6667,372.833 106.5,371C 120.668,364.831 132.501,355.664 142,343.5C 157.679,348.115 163.346,358.115 159,373.5C 154.562,377.939 149.562,381.606 144,384.5C 141.633,388.999 142.467,392.832 146.5,396C 153.297,395.943 159.297,393.609 164.5,389C 168.059,385.778 171.226,382.278 174,378.5C 180.03,382.552 183.53,388.219 184.5,395.5 Z"/></g>
<g><path style="opacity:1" fill="#b2cae9" d="M 200.5,314.5 C 287.167,314.5 373.833,314.5 460.5,314.5C 456.624,385.325 422.291,434.658 357.5,462.5C 325.852,463.629 294.186,463.796 262.5,463C 240.478,459.939 220.144,452.439 201.5,440.5C 200.667,409.839 200.167,379.172 200,348.5C 198.254,345.71 195.754,344.043 192.5,343.5C 192.5,336.5 192.5,329.5 192.5,322.5C 197.167,321.833 199.833,319.167 200.5,314.5 Z"/></g>
<g><path style="opacity:1" fill="#9a9188" d="M 184.5,395.5 C 185.488,400.64 185.821,405.974 185.5,411.5C 128.331,411.832 71.3309,411.499 14.5,410.5C 71.1667,410.5 127.833,410.5 184.5,410.5C 184.5,405.5 184.5,400.5 184.5,395.5 Z"/></g>
<g><path style="opacity:1" fill="#fa3981" d="M 14.5,426.5 C 64.1667,426.5 113.833,426.5 163.5,426.5C 163.5,438.833 163.5,451.167 163.5,463.5C 114.166,463.667 64.8322,463.5 15.5,463C 14.5115,450.914 14.1782,438.747 14.5,426.5 Z"/></g>
<g><path style="opacity:1" fill="#fa1466" d="M 163.5,426.5 C 170.5,426.5 177.5,426.5 184.5,426.5C 184.5,438.5 184.5,450.5 184.5,462.5C 177.687,463.491 170.687,463.825 163.5,463.5C 163.5,451.167 163.5,438.833 163.5,426.5 Z"/></g>
<g><path style="opacity:1" fill="#8d143e" d="M 14.5,426.5 C 71.3309,425.501 128.331,425.168 185.5,425.5C 185.829,438.011 185.495,450.345 184.5,462.5C 184.5,450.5 184.5,438.5 184.5,426.5C 177.5,426.5 170.5,426.5 163.5,426.5C 113.833,426.5 64.1667,426.5 14.5,426.5 Z"/></g>
</svg>
