<?xml version="1.0" encoding="UTF-8"?>
<!DOCTYPE svg PUBLIC "-//W3C//DTD SVG 1.1//EN" "http://www.w3.org/Graphics/SVG/1.1/DTD/svg11.dtd">
<svg xmlns="http://www.w3.org/2000/svg" version="1.1" width="512px" height="512px" style="shape-rendering:geometricPrecision; text-rendering:geometricPrecision; image-rendering:optimizeQuality; fill-rule:evenodd; clip-rule:evenodd" xmlns:xlink="http://www.w3.org/1999/xlink">
<g><path style="opacity:0.972" fill="#030302" d="M 200.5,500.5 C 201.225,498.215 202.558,496.382 204.5,495C 266.167,494.667 327.833,494.333 389.5,494C 395.983,492.872 399.65,489.038 400.5,482.5C 401.664,446.336 401.831,410.002 401,373.5C 372.235,367.768 343.402,362.268 314.5,357C 312.077,355.429 310.744,353.263 310.5,350.5C 311.267,349.828 311.934,348.995 312.5,348C 342.96,352.306 373.294,357.639 403.5,364C 406.562,364.741 409.562,364.575 412.5,363.5C 413.192,362.975 413.692,362.308 414,361.5C 414.667,335.833 414.667,310.167 414,284.5C 413.167,283.667 412.333,282.833 411.5,282C 307.5,281.333 203.5,281.333 99.5,282C 98.6667,282.833 97.8333,283.667 97,284.5C 96.3333,290.5 96.3333,296.5 97,302.5C 97.5,304.333 98.6667,305.5 100.5,306C 160.236,317.271 219.903,328.771 279.5,340.5C 280.95,341.85 281.617,343.516 281.5,345.5C 280.301,348.032 278.301,349.365 275.5,349.5C 221.247,338.686 166.914,328.353 112.5,318.5C 111.791,317.596 110.791,317.263 109.5,317.5C 109.168,372.669 109.501,427.669 110.5,482.5C 111.449,487.881 114.449,491.714 119.5,494C 135.833,494.333 152.167,494.667 168.5,495C 170.607,496.264 171.607,498.097 171.5,500.5C 171.084,502.752 169.751,504.252 167.5,505C 150.455,505.927 133.455,505.593 116.5,504C 109.066,501.565 103.899,496.732 101,489.5C 99.6825,431.878 99.0158,374.211 99,316.5C 94.228,315.287 90.5614,312.621 88,308.5C 86.42,299.576 86.0867,290.576 87,281.5C 88.8333,277 92,273.833 96.5,272C 101.489,271.501 106.489,271.334 111.5,271.5C 111.333,251.164 111.5,230.831 112,210.5C 113.271,209.117 114.771,208.117 116.5,207.5C 118.091,208.219 119.591,209.219 121,210.5C 121.5,223.162 121.667,235.829 121.5,248.5C 149.167,248.5 176.833,248.5 204.5,248.5C 204.5,211.5 204.5,174.5 204.5,137.5C 176.833,137.5 149.167,137.5 121.5,137.5C 121.667,150.504 121.5,163.504 121,176.5C 119.53,177.267 118.03,177.933 116.5,178.5C 114.61,178.703 113.11,178.037 112,176.5C 111.333,126.167 111.333,75.8333 112,25.5C 115.049,14.5444 122.216,8.04443 133.5,6C 216.536,5.01381 299.536,5.34714 382.5,7C 391.342,10.1838 396.842,16.3505 399,25.5C 399.5,107.499 399.667,189.499 399.5,271.5C 404.511,271.334 409.511,271.501 414.5,272C 419,273.833 422.167,277 424,281.5C 424.667,309.167 424.667,336.833 424,364.5C 422.041,370.566 417.875,373.899 411.5,374.5C 411.667,411.502 411.5,448.502 411,485.5C 408.297,496.867 401.131,503.367 389.5,505C 327.833,505.667 266.167,505.667 204.5,505C 202.356,504.208 201.023,502.708 200.5,500.5 Z"/></g>
<g><path style="opacity:1" fill="#e9e9e9" d="M 132.5,16.5 C 156.5,16.5 180.5,16.5 204.5,16.5C 204.5,53.5 204.5,90.5 204.5,127.5C 176.833,127.5 149.167,127.5 121.5,127.5C 121.333,94.165 121.5,60.8317 122,27.5C 124.357,22.6455 127.857,18.9788 132.5,16.5 Z"/></g>
<g><path style="opacity:1" fill="#ebebeb" d="M 214.5,16.5 C 241.833,16.5 269.167,16.5 296.5,16.5C 296.5,53.5 296.5,90.5 296.5,127.5C 269.167,127.5 241.833,127.5 214.5,127.5C 214.5,90.5 214.5,53.5 214.5,16.5 Z"/></g>
<g><path style="opacity:1" fill="#e9e9e9" d="M 306.5,16.5 C 330.169,16.3334 353.836,16.5 377.5,17C 382.91,18.7425 386.744,22.2425 389,27.5C 389.5,60.8317 389.667,94.165 389.5,127.5C 361.833,127.5 334.167,127.5 306.5,127.5C 306.5,90.5 306.5,53.5 306.5,16.5 Z"/></g>
<g><path style="opacity:1" fill="#080707" d="M 142.5,26.5 C 155.837,26.3334 169.171,26.5001 182.5,27C 187.91,28.7425 191.744,32.2425 194,37.5C 194.667,59.8333 194.667,82.1667 194,104.5C 193.1,109.737 190.266,113.571 185.5,116C 171.222,117.597 156.889,117.93 142.5,117C 138,115.167 134.833,112 133,107.5C 131.364,84.23 131.031,60.8967 132,37.5C 134.357,32.6455 137.857,28.9788 142.5,26.5 Z"/></g>
<g><path style="opacity:1" fill="#070605" d="M 234.5,26.5 C 248.171,26.3334 261.837,26.5001 275.5,27C 280.573,28.4056 284.073,31.5723 286,36.5C 286.667,59.8333 286.667,83.1667 286,106.5C 284.526,111.974 281.026,115.474 275.5,117C 262.167,117.667 248.833,117.667 235.5,117C 231.254,115.802 228.087,113.302 226,109.5C 224.363,85.2296 224.029,60.8963 225,36.5C 227.022,31.98 230.189,28.6467 234.5,26.5 Z"/></g>
<g><path style="opacity:1" fill="#080807" d="M 326.5,26.5 C 340.171,26.3334 353.837,26.5001 367.5,27C 372.91,28.7425 376.744,32.2425 379,37.5C 379.667,59.8333 379.667,82.1667 379,104.5C 377.464,111.369 373.298,115.536 366.5,117C 353.5,117.667 340.5,117.667 327.5,117C 321.798,114.635 318.298,110.469 317,104.5C 316.333,82.1667 316.333,59.8333 317,37.5C 318.97,32.7037 322.137,29.037 326.5,26.5 Z"/></g>
<g><path style="opacity:1" fill="#f4e1ad" d="M 144.5,36.5 C 156.838,36.3335 169.171,36.5001 181.5,37C 182.308,37.3076 182.975,37.8076 183.5,38.5C 184.655,60.4569 184.822,82.4569 184,104.5C 183.167,105.333 182.333,106.167 181.5,107C 169.167,107.667 156.833,107.667 144.5,107C 143.667,106.167 142.833,105.333 142,104.5C 141.333,82.8333 141.333,61.1667 142,39.5C 143.045,38.6266 143.878,37.6266 144.5,36.5 Z"/></g>
<g><path style="opacity:1" fill="#f7e4af" d="M 236.5,36.5 C 249.171,36.3334 261.838,36.5001 274.5,37C 275,37.5 275.5,38 276,38.5C 276.667,60.5 276.667,82.5 276,104.5C 275.692,105.308 275.192,105.975 274.5,106.5C 262.213,107.646 249.879,107.813 237.5,107C 236.692,106.692 236.025,106.192 235.5,105.5C 234.344,83.2097 234.178,60.8763 235,38.5C 235.717,37.9558 236.217,37.2891 236.5,36.5 Z"/></g>
<g><path style="opacity:1" fill="#f4e1ad" d="M 329.5,36.5 C 341.838,36.3335 354.171,36.5001 366.5,37C 367.333,37.8333 368.167,38.6667 369,39.5C 369.667,61.1667 369.667,82.8333 369,104.5C 368.167,105.333 367.333,106.167 366.5,107C 354.167,107.667 341.833,107.667 329.5,107C 328.667,106.167 327.833,105.333 327,104.5C 326.333,82.8333 326.333,61.1667 327,39.5C 327.698,38.3094 328.531,37.3094 329.5,36.5 Z"/></g>
<g><path style="opacity:0.998" fill="#eaeaea" d="M 116.5,207.5 C 116.5,204.5 116.5,201.5 116.5,198.5C 121.151,197.76 122.651,195.094 121,190.5C 119.591,189.219 118.091,188.219 116.5,187.5C 116.5,184.5 116.5,181.5 116.5,178.5C 118.03,177.933 119.53,177.267 121,176.5C 121.5,163.504 121.667,150.504 121.5,137.5C 149.167,137.5 176.833,137.5 204.5,137.5C 204.5,174.5 204.5,211.5 204.5,248.5C 176.833,248.5 149.167,248.5 121.5,248.5C 121.667,235.829 121.5,223.162 121,210.5C 119.591,209.219 118.091,208.219 116.5,207.5 Z"/></g>
<g><path style="opacity:1" fill="#ececec" d="M 214.5,137.5 C 241.833,137.5 269.167,137.5 296.5,137.5C 296.5,174.5 296.5,211.5 296.5,248.5C 269.167,248.5 241.833,248.5 214.5,248.5C 214.5,211.5 214.5,174.5 214.5,137.5 Z"/></g>
<g><path style="opacity:1" fill="#e9e9e9" d="M 306.5,137.5 C 334.167,137.5 361.833,137.5 389.5,137.5C 389.5,174.5 389.5,211.5 389.5,248.5C 361.833,248.5 334.167,248.5 306.5,248.5C 306.5,211.5 306.5,174.5 306.5,137.5 Z"/></g>
<g><path style="opacity:1" fill="#070706" d="M 142.5,147.5 C 155.837,147.333 169.171,147.5 182.5,148C 187.91,149.743 191.744,153.243 194,158.5C 194.667,180.833 194.667,203.167 194,225.5C 193.1,230.737 190.266,234.571 185.5,237C 171.235,238.615 156.902,238.948 142.5,238C 136.807,235.643 133.307,231.477 132,225.5C 131.333,203.5 131.333,181.5 132,159.5C 133.936,154.068 137.436,150.068 142.5,147.5 Z"/></g>
<g><path style="opacity:1" fill="#050504" d="M 234.5,147.5 C 247.837,147.333 261.171,147.5 274.5,148C 280.127,148.957 283.96,152.124 286,157.5C 286.667,180.833 286.667,204.167 286,227.5C 284.813,231.709 282.313,234.876 278.5,237C 264.222,238.597 249.889,238.93 235.5,238C 231.291,236.813 228.124,234.313 226,230.5C 224.363,206.23 224.029,181.896 225,157.5C 227.022,152.98 230.189,149.647 234.5,147.5 Z"/></g>
<g><path style="opacity:1" fill="#070707" d="M 327.5,147.5 C 340.837,147.333 354.171,147.5 367.5,148C 372.185,149.35 375.685,152.183 378,156.5C 379.635,179.437 379.969,202.437 379,225.5C 377.664,231.501 374.164,235.668 368.5,238C 354.833,238.667 341.167,238.667 327.5,238C 322.667,235.833 319.167,232.333 317,227.5C 316.333,204.5 316.333,181.5 317,158.5C 319.357,153.645 322.857,149.979 327.5,147.5 Z"/></g>
<g><path style="opacity:1" fill="#f4e1ad" d="M 144.5,157.5 C 156.838,157.333 169.171,157.5 181.5,158C 182.333,158.833 183.167,159.667 184,160.5C 184.667,182.167 184.667,203.833 184,225.5C 183.167,226.333 182.333,227.167 181.5,228C 169.167,228.667 156.833,228.667 144.5,228C 143.667,227.167 142.833,226.333 142,225.5C 141.333,203.833 141.333,182.167 142,160.5C 143.045,159.627 143.878,158.627 144.5,157.5 Z"/></g>
<g><path style="opacity:1" fill="#f7e4af" d="M 236.5,157.5 C 249.171,157.333 261.838,157.5 274.5,158C 275,158.5 275.5,159 276,159.5C 276.827,182.073 276.66,204.573 275.5,227C 268.768,228.13 261.935,228.63 255,228.5C 248.833,228.333 242.667,228.167 236.5,228C 236,227.5 235.5,227 235,226.5C 234.333,204.167 234.333,181.833 235,159.5C 235.717,158.956 236.217,158.289 236.5,157.5 Z"/></g>
<g><path style="opacity:1" fill="#f4e1ad" d="M 329.5,157.5 C 341.838,157.333 354.171,157.5 366.5,158C 367.333,158.833 368.167,159.667 369,160.5C 369.667,182.167 369.667,203.833 369,225.5C 368.167,226.333 367.333,227.167 366.5,228C 354.167,228.667 341.833,228.667 329.5,228C 328.667,227.167 327.833,226.333 327,225.5C 326.333,203.833 326.333,182.167 327,160.5C 328.045,159.627 328.878,158.627 329.5,157.5 Z"/></g>
<g><path style="opacity:0.881" fill="#070707" d="M 116.5,187.5 C 118.091,188.219 119.591,189.219 121,190.5C 122.651,195.094 121.151,197.76 116.5,198.5C 111.849,197.826 110.349,195.159 112,190.5C 113.271,189.117 114.771,188.117 116.5,187.5 Z"/></g>
<g><path style="opacity:0.921" fill="#000000" d="M 68.5,205.5 C 71.3646,205.055 73.8646,205.722 76,207.5C 77.6244,215.065 81.1244,221.565 86.5,227C 89.4167,228.528 92.4167,229.861 95.5,231C 98.1667,234.333 98.1667,237.667 95.5,241C 90.7645,241.867 86.7645,244.033 83.5,247.5C 79.9502,252.692 77.4502,258.358 76,264.5C 73,267.167 70,267.167 67,264.5C 65.5688,252.407 59.0688,244.573 47.5,241C 44.8333,237.667 44.8333,234.333 47.5,231C 52.8948,229.554 57.3948,226.721 61,222.5C 63.2234,216.645 65.7234,210.978 68.5,205.5 Z"/></g>
<g><path style="opacity:0.921" fill="#000000" d="M 436.5,205.5 C 439.365,205.055 441.865,205.722 444,207.5C 445.624,215.065 449.124,221.565 454.5,227C 457.417,228.528 460.417,229.861 463.5,231C 466.167,234.333 466.167,237.667 463.5,241C 458.764,241.867 454.764,244.033 451.5,247.5C 447.95,252.692 445.45,258.358 444,264.5C 441,267.167 438,267.167 435,264.5C 433.569,252.407 427.069,244.573 415.5,241C 412.833,237.667 412.833,234.333 415.5,231C 420.895,229.554 425.395,226.721 429,222.5C 431.223,216.645 433.723,210.978 436.5,205.5 Z"/></g>
<g><path style="opacity:1" fill="#deb11d" d="M 70.5,227.5 C 73.5576,230.051 76.5576,232.885 79.5,236C 76.6503,238.682 73.9836,241.516 71.5,244.5C 69.0164,241.516 66.3497,238.682 63.5,236C 66.4468,233.564 68.7801,230.731 70.5,227.5 Z"/></g>
<g><path style="opacity:1" fill="#deb11d" d="M 438.5,227.5 C 441.558,230.051 444.558,232.885 447.5,236C 444.65,238.682 441.984,241.516 439.5,244.5C 437.016,241.516 434.35,238.682 431.5,236C 434.447,233.564 436.78,230.731 438.5,227.5 Z"/></g>
<g><path style="opacity:1" fill="#ededed" d="M 121.5,258.5 C 149.167,258.5 176.833,258.5 204.5,258.5C 204.5,262.833 204.5,267.167 204.5,271.5C 176.833,271.5 149.167,271.5 121.5,271.5C 121.5,267.167 121.5,262.833 121.5,258.5 Z"/></g>
<g><path style="opacity:1" fill="#eeefee" d="M 214.5,258.5 C 241.833,258.5 269.167,258.5 296.5,258.5C 296.5,262.833 296.5,267.167 296.5,271.5C 269.167,271.5 241.833,271.5 214.5,271.5C 214.5,267.167 214.5,262.833 214.5,258.5 Z"/></g>
<g><path style="opacity:1" fill="#ededed" d="M 306.5,258.5 C 334.167,258.5 361.833,258.5 389.5,258.5C 389.5,262.833 389.5,267.167 389.5,271.5C 361.833,271.5 334.167,271.5 306.5,271.5C 306.5,267.167 306.5,262.833 306.5,258.5 Z"/></g>
<g><path style="opacity:1" fill="#71c0e6" d="M 310.5,350.5 C 307.455,350.492 304.455,350.159 301.5,349.5C 301.11,344.466 298.444,342.633 293.5,344C 292.619,344.708 291.953,345.542 291.5,346.5C 288.098,346.658 284.764,346.324 281.5,345.5C 281.617,343.516 280.95,341.85 279.5,340.5C 219.903,328.771 160.236,317.271 100.5,306C 98.6667,305.5 97.5,304.333 97,302.5C 96.3333,296.5 96.3333,290.5 97,284.5C 97.8333,283.667 98.6667,282.833 99.5,282C 203.5,281.333 307.5,281.333 411.5,282C 412.333,282.833 413.167,283.667 414,284.5C 414.667,310.167 414.667,335.833 414,361.5C 413.692,362.308 413.192,362.975 412.5,363.5C 409.562,364.575 406.562,364.741 403.5,364C 373.294,357.639 342.96,352.306 312.5,348C 311.934,348.995 311.267,349.828 310.5,350.5 Z"/></g>
<g><path style="opacity:1" fill="#e2a21d" d="M 112.5,318.5 C 166.914,328.353 221.247,338.686 275.5,349.5C 278.301,349.365 280.301,348.032 281.5,345.5C 284.764,346.324 288.098,346.658 291.5,346.5C 291.488,351.325 293.821,353.491 298.5,353C 299.636,351.855 300.636,350.688 301.5,349.5C 304.455,350.159 307.455,350.492 310.5,350.5C 310.744,353.263 312.077,355.429 314.5,357C 343.402,362.268 372.235,367.768 401,373.5C 401.831,410.002 401.664,446.336 400.5,482.5C 400.5,449.167 400.5,415.833 400.5,382.5C 303.87,363.907 207.204,345.574 110.5,327.5C 109.945,323.988 110.612,320.988 112.5,318.5 Z"/></g>
<g><path style="opacity:1" fill="#aa8816" d="M 112.5,318.5 C 110.612,320.988 109.945,323.988 110.5,327.5C 110.5,379.167 110.5,430.833 110.5,482.5C 109.501,427.669 109.168,372.669 109.5,317.5C 110.791,317.263 111.791,317.596 112.5,318.5 Z"/></g>
<g><path style="opacity:1" fill="#efc020" d="M 110.5,327.5 C 207.204,345.574 303.87,363.907 400.5,382.5C 400.5,415.833 400.5,449.167 400.5,482.5C 399.65,489.038 395.983,492.872 389.5,494C 327.833,494.333 266.167,494.667 204.5,495C 202.558,496.382 201.225,498.215 200.5,500.5C 197.5,500.5 194.5,500.5 191.5,500.5C 190.845,495.5 188.178,493.833 183.5,495.5C 182.237,497.029 181.237,498.695 180.5,500.5C 177.5,500.5 174.5,500.5 171.5,500.5C 171.607,498.097 170.607,496.264 168.5,495C 152.167,494.667 135.833,494.333 119.5,494C 114.449,491.714 111.449,487.881 110.5,482.5C 110.5,430.833 110.5,379.167 110.5,327.5 Z"/></g>
<g><path style="opacity:1" fill="#0e0d0a" d="M 301.5,349.5 C 300.636,350.688 299.636,351.855 298.5,353C 293.821,353.491 291.488,351.325 291.5,346.5C 291.953,345.542 292.619,344.708 293.5,344C 298.444,342.633 301.11,344.466 301.5,349.5 Z"/></g>
<g><path style="opacity:1" fill="#f7e3ab" d="M 383.5,394.5 C 386.695,393.961 389.195,394.961 391,397.5C 391.956,401.572 391.456,405.405 389.5,409C 386.653,409.944 384.153,409.444 382,407.5C 380.978,402.871 381.478,398.538 383.5,394.5 Z"/></g>
<g><path style="opacity:1" fill="#f7e4ac" d="M 383.5,420.5 C 386.695,419.961 389.195,420.961 391,423.5C 391.667,442.833 391.667,462.167 391,481.5C 390.167,482.333 389.333,483.167 388.5,484C 299.833,484.667 211.167,484.667 122.5,484C 118.5,481 118.5,478 122.5,475C 208.833,474.5 295.166,474.333 381.5,474.5C 381.333,457.163 381.5,439.83 382,422.5C 382.717,421.956 383.217,421.289 383.5,420.5 Z"/></g>
<g><path style="opacity:0.883" fill="#0d0a02" d="M 191.5,500.5 C 187.874,507.148 184.208,507.148 180.5,500.5C 181.237,498.695 182.237,497.029 183.5,495.5C 188.178,493.833 190.845,495.5 191.5,500.5 Z"/></g>
</svg>
